<svg width="200" height="40" viewBox="0 0 200 40" fill="none" xmlns="http://www.w3.org/2000/svg">
  <path d="M20 0H4C1.8 0 0 1.8 0 4v16c0 2.2 1.8 4 4 4h16c2.2 0 4-1.8 4-4V4c0-2.2-1.8-4-4-4z" fill="#A855F7"/>
  <text x="32" y="18" font-family="'Noto Sans JP', sans-serif" font-size="16" font-weight="700" fill="#333333">ペットわり</text>
  <path d="M7.5 6C6.7 6 6 6.7 6 7.5S6.7 9 7.5 9 9 8.3 9 7.5 8.3 6 7.5 6zm5 0c-.8 0-1.5.7-1.5 1.5s.7 1.5 1.5 1.5 1.5-.7 1.5-1.5S13.3 6 12.5 6zm-5 5C6.7 11 6 11.7 6 12.5S6.7 14 7.5 14s1.5-.7 1.5-1.5-.7-1.5-1.5-1.5zm5 0c-.8 0-1.5.7-1.5 1.5s.7 1.5 1.5 1.5 1.5-.7 1.5-1.5-.7-1.5-1.5-1.5z" fill="white"/>
</svg> 